<svg xmlns="http://www.w3.org/2000/svg" version="1.1" xmlns:xlink="http://www.w3.org/1999/xlink" viewBox="0 0 7.12609218526707 6.556521524120145"><g transform="matrix(0.8518570319522244,0,0,0.8518570319522244,2.195961391892361,2.5928125529348636)"><rect width="8.26630999438267" height="8.26630999438267" x="-2.528326194395415" y="-3.328503296947284" fill="#73bcc4"></rect><g><path d=" M -0.643561887687828 0.9544759998718013 Q -0.6452837334891321 0.9673614663762213 -0.6538434787271503 0.9747932065129743 Q -0.6624032239651685 0.9822249466497273 -0.6723151212762608 0.9809004498794933 L -1.34731532816165 0.8907022198265575 Q -1.3592096049349607 0.8891128237022767 -1.3643940662554481 0.8788355983560869 Q -1.369578527575936 0.8685583730098971 -1.3681215811286784 0.8576552859676956 L -1.3463998340968408 0.6951001700657811 Q -1.3389826521835304 0.6395935451236638 -1.3199382756975222 0.5952250684283886 Q -1.3008938992115142 0.5508565917331134 -1.2610731079078836 0.5284332873389637 Q -1.2212523166042528 0.5060099829448138 -1.1508778456954973 0.5154139100134753 Q -1.0884328926356155 0.5237582396659495 -1.0494198964735229 0.552680309620511 Q -1.0104069003114304 0.5816023795750724 -0.9985897626094626 0.6215192338666212 Q -0.9825895458484264 0.5923817483265157 -0.9587282189235942 0.5723658277284948 Q -0.934866891998762 0.5523499071304738 -0.9004357850708531 0.543835279967826 Q -0.8660046781429442 0.5353206528051782 -0.814462812125264 0.5422080360103949 L -0.7966213969652978 0.5445921301968162 Q -0.7212909774009959 0.5546583056505946 -0.6801311311036887 0.5863894741254877 Q -0.6389712848063815 0.6181206426003808 -0.62510772565025 0.6653731740407645 Q -0.6112441664941183 0.712625705481148 -0.6185288987304053 0.7671411406921559 L -0.643561887687828 0.9544759998718013 M -0.6992562729126489 0.9107137392534415 L -0.6801835194212792 0.7679824179737116 Q -0.6714418407377347 0.702563895720502 -0.7017284381422468 0.6611879121351296 Q -0.7320150355467587 0.6198119285497573 -0.8083366448421698 0.6096133034189555 L -0.8251868702710269 0.6073616589095576 Q -0.9024996692975471 0.5970305841017324 -0.9391183787429085 0.6294662144880253 Q -0.9757370881882699 0.6619018448743181 -0.9844787668718142 0.7273203671275277 L -1.003551520363184 0.8700516884072574 L -0.6992562729126489 0.9107137392534415 M -1.0600493350364104 0.8625020568169236 L -1.0428308770233683 0.7336473917727231 Q -1.0335593996317303 0.6642641105950766 -1.057933062492126 0.6277138088347933 Q -1.0823067253525214 0.5911635070745099 -1.152681196261277 0.5817595800058485 Q -1.199267113623411 0.5755344451857487 -1.226430951087563 0.5900646184201299 Q -1.2535947885517151 0.6045947916545111 -1.2671170309849784 0.6340634013871751 Q -1.2806392734182417 0.6635320111198391 -1.2862021598532243 0.7051619798264269 L -1.302890819158173 0.8300518859461905 L -1.0600493350364104 0.8625020568169236 M -0.4232687425878854 0.11280383496453915 Q -0.4286870313937568 0.12237682542813871 -0.4390232297273182 0.12744269198868707 Q -0.4493594280608797 0.1325085585492354 -0.4606729622451337 0.12610512632411464 L -1.052457827267653 -0.20884363622066432 Q -1.0629010895915798 -0.21475449673616043 -1.0638784254422724 -0.22622379552182953 Q -1.064855761292965 -0.23769309430749863 -1.0594374724870934 -0.24726608477109818 L -0.8840819438607093 -0.5570828670475936 Q -0.8776785116355885 -0.5683964012318476 -0.8664554987047317 -0.5689386011523767 Q -0.855232485773875 -0.5694808010729056 -0.8465297671706026 -0.5645550839766589 Q -0.8352162329863486 -0.5581516517515381 -0.8301503664258002 -0.5478154534179767 Q -0.825084499865252 -0.5374792550844152 -0.8309953603807481 -0.5270359927604884 L -0.988618307460644 -0.24854899745577347 L -0.7492935458706546 -0.1130917773089879 L -0.6719597874595806 -0.24972445938036364 Q -0.6660489269440846 -0.2601677217042905 -0.6550147640885791 -0.2613913434097954 Q -0.6439806012330735 -0.26261496511530036 -0.6335373389091468 -0.25670410459980425 Q -0.6257048921662016 -0.25227095921318216 -0.6208278756810046 -0.24261618266459672 Q -0.6159508591958075 -0.23296140611601124 -0.6223542914209284 -0.22164787193175717 L -0.6996880498320023 -0.08501518986038142 L -0.45862274452135837 0.051427173705653556 L -0.30099979744146244 -0.2270598215990614 Q -0.29508893692596627 -0.2375030839229882 -0.28405477407046076 -0.23872670562849313 Q -0.2730206112149553 -0.23995032733399813 -0.2617070770307013 -0.23354689510887733 Q -0.2521340865671017 -0.2281286063030059 -0.24682193415174103 -0.21822754389960808 Q -0.24150978173638032 -0.20832648149621025 -0.24791321396150112 -0.19701294731195623 L -0.4232687425878854 0.11280383496453915 M 0.07744786949810874 -0.5616508712026512 Q 0.06896752829926726 -0.5546448871068064 0.05750369757090491 -0.5536053751869829 Q 0.04603986684254255 -0.5525658632671596 0.037760067456544005 -0.5625880846839723 L -0.3959740388407643 -1.087598298903158 Q -0.40425383822676286 -1.0976205203199707 -0.40004742918482944 -1.1082297673701595 Q -0.39584102014289596 -1.1188390144203482 -0.3858187987260833 -1.1271188138063468 Q -0.3765675174182563 -1.1347617055472685 -0.36496965422598515 -1.1372090652211542 Q -0.353371791033714 -1.13965642489504 -0.3450919916477155 -1.1296342034782274 L 0.06635034707190444 -0.6316068930735373 L 0.2860682781327971 -0.8131255719204284 Q 0.29531955944062416 -0.8207684636613503 0.30522488261378183 -0.8166290708513713 Q 0.3151302057869395 -0.8124896780413922 0.3221361898827844 -0.8040093368425507 Q 0.32977908162370617 -0.7947580555347236 0.3319750037070079 -0.7842495862739765 Q 0.33417092579030966 -0.7737411170132293 0.3249196444824826 -0.7660982252723076 L 0.07744786949810874 -0.5616508712026512 M 0.750937953267775 -0.9873009696199276 Q 0.7389129320180838 -0.9823614490010338 0.7271931553627207 -0.9845743283805766 Q 0.7154733787073576 -0.9867872077601192 0.7105338580884638 -0.9988122290098104 L 0.4517789702833374 -1.628738342166708 Q 0.447219412788974 -1.6398383617818075 0.45418965038770853 -1.6491880028346602 Q 0.46115988798644303 -1.6585376438875126 0.4731849092361342 -1.6634771645064066 Q 0.4842849288512337 -1.66803672200077 0.49627722476162756 -1.6664763250007883 Q 0.5082695206720214 -1.6649159280008066 0.5128290781663848 -1.653815908385707 L 0.7715839659715111 -1.0238897952288095 Q 0.7765234865904049 -1.0118647739791182 0.7692807297366397 -1.0018626505467048 Q 0.7620379728828746 -0.9918605271142911 0.750937953267775 -0.9873009696199276 M 1.280079624582534 -1.1371467182973953 Q 1.2691137486102808 -1.136280944561853 1.259131625790514 -1.1420130666829433 Q 1.2491495029707476 -1.1477451888040338 1.2481263158287428 -1.160704860407606 L 1.1946057576315767 -1.8385953750559993 Q 1.1936612771928032 -1.8505581488439122 1.2026202128705652 -1.8577856983263943 Q 1.2115791485483272 -1.865013247808876 1.2225450245205807 -1.8658790215444183 L 1.5774406468953277 -1.8938986078946995 Q 1.5904003184989 -1.894921795036704 1.597129419073552 -1.8859235060073265 Q 1.6038585196482043 -1.876925216977949 1.6046455866805154 -1.866956238821355 Q 1.6056687738225202 -1.8539965672177827 1.5999366517014297 -1.8440144443980162 Q 1.5942045295803393 -1.8340323215782495 1.5822417557924267 -1.8330878411394758 L 1.2632344547814178 -1.8079016961055154 L 1.2848787981699776 -1.5337547967991798 L 1.4413917552285038 -1.5461117492064667 Q 1.4533545290164165 -1.5470562296452401 1.460542725147283 -1.5385957428753079 Q 1.467730921278149 -1.5301352561053756 1.4686754017169226 -1.5181724823174627 Q 1.4693837620460029 -1.5092004019765282 1.4641107354811265 -1.4997560814162068 Q 1.4588377089162503 -1.4903117608558853 1.445878037312678 -1.4892885737138808 L 1.2893650802541519 -1.4769316213065937 L 1.311166837049174 -1.2007909263689394 L 1.6301741380601826 -1.2259770714029 Q 1.6421369118480955 -1.2269215518416734 1.6493251079789617 -1.2184610650717411 Q 1.6565133041098279 -1.2100005783018088 1.6575364912518327 -1.1970409066982366 Q 1.658402264987375 -1.1860750307259833 1.6531685917741143 -1.1761322612578322 Q 1.6479349185608536 -1.1661894917896811 1.6349752469572814 -1.1651663046476763 L 1.280079624582534 -1.1371467182973953 M 2.1224013443168634 -1.099633789451515 Q 2.109959342857844 -1.1034016269869922 2.1021275744442027 -1.1120424257645993 Q 2.094295806030562 -1.1206832245422065 2.0980636435660394 -1.1331252260012261 L 2.2954403636937393 -1.7848946870467952 Q 2.2989183675726412 -1.7963796114705057 2.3098945181758177 -1.7998471924625514 Q 2.3208706687789937 -1.8033147734545967 2.331398516167395 -1.8001266032322698 L 2.6702037866668538 -1.697525488804655 Q 2.6826457881258734 -1.6937576512691774 2.6856348306002644 -1.682926417494289 Q 2.6886238730746554 -1.6720951837194005 2.6857255365089037 -1.6625244133663084 Q 2.6819576989734264 -1.6500824119072885 2.672983278506452 -1.64287409883959 Q 2.664008858039478 -1.635665785771891 2.6525239336157673 -1.6391437896507934 L 2.34817343638744 -1.7313108924417016 L 2.268469180829265 -1.46811470773167 L 2.4196873524081193 -1.422320989992791 Q 2.4302151997965207 -1.4191328197704642 2.4338276976168536 -1.4086352076849424 Q 2.437440195437187 -1.398137595599421 2.4339621915582845 -1.3866526711757106 Q 2.431353688649108 -1.3780389778579276 2.4234812620457307 -1.3710193696513082 Q 2.4156088354423533 -1.363999761444689 2.4031668339833336 -1.3677675989801663 L 2.2519486624044793 -1.4135613167190453 L 2.161230727896447 -1.113996204667264 Q 2.1574628903609696 -1.1015542032082444 2.145674579550772 -1.0988549943904284 Q 2.133886268740574 -1.0961557855726127 2.1224013443168634 -1.099633789451515 M 2.879416849801672 -0.7636636410206425 Q 2.869162828611638 -0.7716545764749142 2.8652705877310556 -0.782928460496294 Q 2.8613783468504734 -0.7942023445176738 2.869369282304745 -0.8044563657077076 L 3.2879713626400573 -1.3416093218933258 Q 3.2941182360664203 -1.3494970305010443 3.304029485249345 -1.350013886026289 Q 3.3139407344322698 -1.3505307415515337 3.3248094429649395 -1.3433285769580339 L 3.469943281346957 -1.2302261059129567 Q 3.5156919912717233 -1.194574240040052 3.5398557875326375 -1.149119746859938 Q 3.5640195837935513 -1.103665253679824 3.5567334356018034 -1.050390850402754 Q 3.5494472874100556 -0.9971164471256839 3.5021163620270617 -0.9363810908462527 L 3.4959694886006982 -0.9284933822385344 Q 3.448023875875068 -0.8669692550983314 3.3977497157712553 -0.8471953119949391 Q 3.3474755556674425 -0.8274213688915468 3.2971005055854183 -0.8400548295905621 Q 3.246725455503394 -0.8526882902895773 3.200976745578628 -0.888340156162482 L 3.087393741627484 -0.9768551335021075 L 2.921428159115686 -0.7638870010937127 Q 2.9134372236614143 -0.7536329799036788 2.901159661896174 -0.7549601864063429 Q 2.888882100130934 -0.756287392909007 2.879416849801672 -0.7636636410206425 M 3.1224309201577523 -1.021815072566102 L 3.2360139241088963 -0.9333000952264764 Q 3.2888615717806093 -0.8921160432698451 3.341491254408414 -0.898644175199928 Q 3.3941209370362184 -0.905172307130011 3.4420665497618486 -0.9666964342702139 L 3.449442797873484 -0.9761616845994759 Q 3.4973884105991146 -1.0376858117396788 3.4905529349977136 -1.0899211089370975 Q 3.4837174593963125 -1.1421564061345162 3.4308698117246 -1.1833404580911475 L 3.317286807773456 -1.2718554354307732 L 3.1224309201577523 -1.021815072566102 M 3.433751054724283 -0.22993387775027355 Q 3.429696375353897 -0.23683022281149024 3.428152012026495 -0.2463625332299028 Q 3.4266076486990937 -0.2558948436483154 3.429169919533543 -0.2643615294326664 Q 3.4317321903679923 -0.27282821521701733 3.438628535429209 -0.2768828945874031 Q 3.442076707959817 -0.278910234272596 3.4451696722790714 -0.2795686959038386 L 4.136425457901168 -0.4435425927410447 Q 4.148797315178186 -0.446176439266015 4.159113736542053 -0.43948155687398227 Q 4.16943015790592 -0.4327866744819495 4.176019011882796 -0.42158011375747234 Q 4.183114700780972 -0.40951150990034313 4.183771043579989 -0.3965570043470548 Q 4.184427386379006 -0.38360249879376646 4.176465416683727 -0.37544118526152975 L 3.6965597932429897 0.1480046978915971 Q 3.6944804987663318 0.1503872457881439 3.6918943693683755 0.15190775055203853 Q 3.6849980243071587 0.15596242992242432 3.676353734417131 0.15408459811495023 Q 3.6677094445271026 0.1522067663074761 3.6596997577048103 0.14647571779880025 Q 3.651690070882518 0.1407446692901243 3.646621721669536 0.13212423796360345 Q 3.64256704229915 0.12522789290238673 3.642467370380671 0.11716625128862923 Q 3.6423676984621918 0.10910460967487173 3.649112416813464 0.10281900911788355 L 3.7580458179408693 -0.015749595996690735 L 3.61815937966256 -0.25367350060866706 L 3.46209033085442 -0.21527490683073694 Q 3.452811437896657 -0.2132995219370092 3.445815420916961 -0.21730648418038095 Q 3.438819403937265 -0.22131344642375267 3.433751054724283 -0.22993387775027355 M 3.6754051969645007 -0.26877040100023225 L 3.7985660828399683 -0.05929391976577489 L 4.084642439821675 -0.36785561209986084 L 3.6754051969645007 -0.26877040100023225 M 3.8054132403264522 0.6096627796420802 Q 3.8036283906891426 0.5967858890324572 3.8093950839468524 0.5874053107522293 Q 3.8151617772045623 0.5780247324720015 3.826057607720397 0.5765144750865856 L 4.501599099702155 0.4828785171908025 Q 4.511504400171096 0.4815055559313335 4.5196051275699025 0.48896398844830485 Q 4.52770585496871 0.4964224209652762 4.52949070460602 0.5092993115748992 L 4.55379211889862 0.68462312987515 Q 4.561892590329487 0.7430644026419002 4.547613025327189 0.7929977985142536 Q 4.533333460324891 0.8429311943866069 4.490554191584409 0.876623688595698 Q 4.447774922843927 0.9103161828047891 4.371504109233084 0.9208879845027 L 4.070382974977286 0.9626260067905565 Q 3.993121631319548 0.9733351046144144 3.942791075651987 0.9525484462443314 Q 3.892460519984426 0.9317617878742486 3.865137823017173 0.8875948292916649 Q 3.83781512604992 0.8434278707090813 3.829714654619053 0.784986597942331 L 3.8054132403264522 0.6096627796420802 M 3.870778233721079 0.6369467976475062 L 3.8901369874795915 0.7766115342595704 Q 3.8993358279180335 0.8429770474014733 3.941202692439096 0.8755372325234129 Q 3.983069556960159 0.9080974176453525 4.0613214306647905 0.8972510236955478 L 4.362442564920588 0.8555130014076913 Q 4.439703908578327 0.8448039035838334 4.4711362675274255 0.8020838051418235 Q 4.502568626476524 0.7593637066998136 4.493369786038082 0.6929981935579107 L 4.474011032279569 0.5533334569458465 L 3.870778233721079 0.6369467976475062" fill="#404040" fill-rule="nonzero"></path></g><g><path d=" M -0.31185259899348494 2.28591355268669 Q -0.30869996369327235 2.2838293076563794 -0.30564511683380047 2.2844525353138225 Q -0.3004082365032774 2.2855209255837248 -0.29745117808454635 2.288851625928921 L -0.26688225097332574 2.3350902769987063 Q -0.25420309370560357 2.354268808408333 -0.2562858653959118 2.3733904263493417 Q -0.2580168849553772 2.391901950510281 -0.27430550067314247 2.4026705498335517 Q -0.2861278830489399 2.4104864686972163 -0.2996608685285824 2.4088619934967404 Q -0.31380394778829446 2.406885766165422 -0.3248571565155388 2.396448502517374 L -0.3251198761238899 2.396622189603233 Q -0.313691552130178 2.4230459477285753 -0.32704499922483465 2.4428229123809 Q -0.33143533392168417 2.448745785136611 -0.33879148295551365 2.453609023540669 Q -0.3461476319893431 2.458472261944727 -0.35480424518755443 2.460797336787766 Q -0.36346085838576575 2.4631224116308053 -0.37253636644168936 2.4608163219642663 Q -0.3933058227187982 2.455669947496237 -0.40911134753198614 2.431762463136291 L -0.4408960842442212 2.3836847748080485 Q -0.44298032927453174 2.380532139507836 -0.44244175618045617 2.3767781663458027 Q -0.44189880512725616 2.371888660186998 -0.43795801100199033 2.36928335389911 L -0.31185259899348494 2.28591355268669 M -0.42150299077661263 2.3833227934189547 L -0.4015289759028037 2.4135355483793255 Q -0.38832875737750383 2.4335022386140057 -0.37716462633214526 2.4378254305839855 Q -0.36408555938321085 2.4439030052490556 -0.3493732613155519 2.4341765284409402 Q -0.32625393578065925 2.4188920648853296 -0.34116475740980423 2.3894849805865097 Q -0.3460236178547376 2.3809932985559086 -0.35279741420324673 2.3707472338302176 L -0.36790819067299785 2.347890627903676 L -0.42150299077661263 2.3833227934189547 M -0.2878662272475342 2.3855850193724843 Q -0.2636960232792373 2.3696058074734374 -0.28627972240005883 2.336587791384572 L -0.30590636310214936 2.306900475640903 L -0.3547722102554452 2.3392062736107158 L -0.33497188246749543 2.3691563089627357 Q -0.320382167255322 2.391224756064224 -0.3015991675677828 2.390511022544287 Q -0.2949596566730126 2.390274570690683 -0.2878662272475342 2.3855850193724843 M -0.2206570163479393 2.5650152774570545 L -0.2695937253075531 2.604171043861145 Q -0.2752497268455989 2.6086965847018186 -0.28134904727857785 2.6051065105464457 Q -0.28302144937075757 2.6040245571748404 -0.2849890758232244 2.601565426071342 Q -0.28695670227569126 2.599106294967844 -0.28715378649060624 2.5948271495920228 Q -0.28735087070552123 2.5905480042162012 -0.28317034782957434 2.5872030392470076 L -0.23447955198031037 2.548244035488164 L -0.20315591350487253 2.4517882633848878 Q -0.20266424806900704 2.449378121961659 -0.2009428562965583 2.448000783444932 Q -0.1992214645241096 2.446623444928205 -0.1971556979262706 2.4461806083877744 Q -0.19508993132843164 2.4457377718473436 -0.19267978990520246 2.4462294372832094 Q -0.18810542016909387 2.447409530800187 -0.18574426842613367 2.450360488124385 Q -0.1814154902307066 2.4557705765520805 -0.18387429976453648 2.4617714352700193 L -0.21352650085679947 2.547209463948486 L -0.2133297382115528 2.5474553770588355 L -0.12277957880785792 2.5371191479672697 Q -0.11687734258979399 2.536430076746821 -0.11333561497535366 2.5408565127331175 Q -0.10940036207041998 2.545774774940114 -0.11176087067404356 2.5508902821468595 Q -0.11220338564480592 2.5528577478144925 -0.113432951196555 2.5538415610407257 Q -0.1149084298586539 2.5550221369122057 -0.11785954796768588 2.55536667252243 L -0.2206570163479393 2.5650152774570545 M 0.00963145847199623 2.689774058584185 Q 0.012228534334460028 2.6870284468769094 0.015345102083474671 2.686941800967436 Q 0.02068778965321405 2.686793265122624 0.02432384928877951 2.6893655850109526 L 0.06459282099548802 2.727456030993755 Q 0.08129529221474777 2.7432549091570766 0.08360844151523644 2.7623500276670385 Q 0.0861256358171961 2.7807711212372497 0.07270741052779978 2.79495678172484 Q 0.06296837604356054 2.8052528256271234 0.04941999010480874 2.806743414143049 Q 0.035197579226305675 2.808029957657504 0.022063280498884508 2.8003748879278567 L 0.021846857510345874 2.800603688903463 Q 0.038976177498294295 2.823742573481642 0.030461796593171442 2.846034908441704 Q 0.027530898650171526 2.8527999138133517 0.02147105497108931 2.859206341130328 Q 0.015411211292007121 2.8656127684473045 0.007508581821006888 2.8698425878918266 Q -0.0003940476499933454 2.8740724073363486 -0.009756128884104917 2.8738871211006245 Q -0.031151635137197722 2.8735908165515816 -0.051972523917370866 2.8538963245945643 L -0.09384310245332343 2.8142909176919915 Q -0.09658871416059901 2.811693841829528 -0.0969165390327465 2.8079156271278296 Q -0.09749792085463557 2.8030305415093024 -0.09425157602655582 2.7995985268752084 L 0.00963145847199623 2.689774058584185 M -0.07503867485430579 2.8095352255822394 L -0.0487265626595815 2.8344238692641843 Q -0.03133768851350284 2.8508720163931214 -0.019483552521857295 2.852547507574481 Q -0.0053661627482840535 2.8554967807129374 0.006753524609880351 2.8426839260789847 Q 0.025798747601281563 2.8225494402256306 0.00460052200069036 2.7972958377103354 Q -0.0020594622660276007 2.7901291231144243 -0.010982700314673216 2.781688626561417 L -0.030888385192421167 2.7628598265585547 L -0.07503867485430579 2.8095352255822394 M 0.05562160527973331 2.781396401369311 Q 0.07553252022528911 2.760346711613532 0.046041950346211946 2.7333185940203357 L 0.020187440102700238 2.708862796315468 L -0.02006723576548866 2.75141977777824 L 0.006016075453629338 2.776091998471646 Q 0.0252353574045584 2.7942715295088925 0.04336576006382478 2.7893117923976694 Q 0.049778184589189756 2.787574027710681 0.05562160527973331 2.781396401369311 M 0.07441140200184353 2.9648952579608596 Q 0.06873529774284194 2.9603949564443024 0.0704275191341519 2.9536982260604305 Q 0.07086114940903618 2.951630507360271 0.0722308063923362 2.9499029973684006 L 0.1661501423900511 2.8314451693544544 Q 0.17065044390660827 2.825769065095453 0.17720263086551843 2.828150526053483 Q 0.1788790189990213 2.8290777306117585 0.1815425556993071 2.830787596303349 Q 0.1842060923995929 2.832497461994939 0.18510864154992152 2.83642841196179 Q 0.18601119070025016 2.8403593619286416 0.1826848808836644 2.844554743337469 L 0.09326584640250668 2.9573364670924134 L 0.1544690575430455 3.0058614573578994 Q 0.1581708646684813 3.008796436607828 0.1581118261812106 3.0121659516538775 Q 0.15805278769393993 3.0155354666999266 0.15599830221898991 3.018126731687732 Q 0.1539438167440399 3.020717996675537 0.15045531920221272 3.0215694239674984 Q 0.1469668216603855 3.0224208512594597 0.1435118016766454 3.01968153729286 L 0.07441140200184353 2.9648952579608596 M 0.34472240685338756 3.1419441137264976 Q 0.3439451581116451 3.143695076279066 0.34290497621926297 3.1452726751829037 Q 0.3418647943268809 3.1468502740867415 0.3400358129825798 3.1479077820443884 Q 0.33820683163827875 3.1489652900020353 0.33637207493888943 3.1488872712103024 Q 0.3321824705939197 3.1495200330787556 0.3290272727862439 3.1474396692939917 Q 0.32271687717089226 3.1432789417244633 0.32425404858911244 3.1363704363711875 L 0.33234732570414216 3.0960607063560026 L 0.26135537503143624 3.0492525211988073 L 0.22775758230436038 3.0727459772871484 Q 0.22227641362654543 3.0770540279094685 0.21675481746311276 3.073413391286131 Q 0.21123322129968009 3.069772754662794 0.21146150231979025 3.063132957815246 Q 0.2117128847602534 3.061035267965217 0.21257970300390516 3.059720602212019 Q 0.21344652124755692 3.0584059364588208 0.2156222298893187 3.0568225621998946 L 0.34018659019137193 2.971459063736083 Q 0.35411343564068254 2.9617796791787074 0.36216324309842596 2.9644466019912192 Q 0.3641771388016339 2.965397214381692 0.3674161307561308 2.9667783482164465 Q 0.37267479376892376 2.9702456211910535 0.3737438524367471 2.9743456560341137 Q 0.3758704190622173 2.9802746722214755 0.373316167171968 2.9933028834761073 L 0.34472240685338756 3.1419441137264976 M 0.27553937827629826 3.0386109735407825 L 0.3368028023753371 3.0790047036949546 L 0.35700853647722136 2.981418810505446 L 0.27553937827629826 3.0386109735407825 M 0.4466563842288722 3.1185963739293747 Q 0.4543516456739054 3.1041399062842174 0.4663650278136 3.0916252166011824 Q 0.4783784099532946 3.0791105269181474 0.49262014902850876 3.0731337448850713 Q 0.5233995495278003 3.0595480520615905 0.5573166466952845 3.0776023192980144 Q 0.5767772762176114 3.0879613250894056 0.590538310059618 3.106346666481176 Q 0.5942285623644726 3.1108084879827462 0.5918607896121547 3.115256631873564 Q 0.5874212157015586 3.1235969016688467 0.5806010140683123 3.120323251533546 Q 0.5792109691024319 3.1195833225484466 0.5782469189267474 3.118713370367191 Q 0.5626159575260734 3.101830134536594 0.5513565933024414 3.095836709757289 Q 0.5400972290788093 3.0898432849779844 0.5312591140898758 3.088349749397033 Q 0.5224209991009423 3.0868562138160813 0.5144930464851024 3.0883446417665015 Q 0.5065650938692625 3.0898330697169216 0.49956526622737984 3.0935994574153414 Q 0.4925654385854972 3.0973658451137616 0.4864937359175717 3.103410192560181 Q 0.4746642647766243 3.114238865683296 0.46667303173755137 3.1292513513148053 Q 0.4536502815998028 3.153716142714302 0.45561348451247846 3.176168128388643 Q 0.4578949066101683 3.20271411356706 0.4845837699550738 3.2169207500809676 Q 0.5029323635046964 3.226687812684279 0.5247924059909578 3.2258366457443075 Q 0.5273124495304063 3.2264645141341144 0.5293975169792271 3.2275744076117636 Q 0.5314825844280477 3.2286843010894124 0.5322537423045534 3.2315922717222745 Q 0.533024900181059 3.234500242355136 0.5313970564138404 3.2375583412800735 Q 0.5297692126466218 3.2406164402050104 0.5261392756295242 3.2420736392640244 Q 0.5225093386124267 3.2435308383230383 0.5176463237269003 3.243618097512091 Q 0.5127833088413739 3.243705356701143 0.5073082456718491 3.242931645009372 Q 0.5018331825023242 3.2421579333176007 0.49623707743707496 3.2406062249439476 Q 0.48419287772618447 3.2377628545889534 0.4747405719581971 3.2327313374902777 Q 0.4405454657975369 3.214529084456834 0.4347577023937396 3.1818352612169263 Q 0.4288980885864878 3.151957453110507 0.4466563842288722 3.1185963739293747 M 0.6412940875470833 3.2990611073200324 Q 0.6393404431736799 3.303706062168285 0.6362853491095273 3.304471098049678 Q 0.6315806052399606 3.305908961549784 0.6272259600697238 3.304077419949718 Q 0.6211294568313921 3.301513261709626 0.6210048293273446 3.29531086531864 Q 0.6211568266113392 3.2933248017038697 0.6221336487980409 3.2910023242797437 L 0.6808650827734809 3.1513633691541467 Q 0.682940829920222 3.1464281046278786 0.6868207488870817 3.1453266549371293 Q 0.6907006678539414 3.14422520524638 0.6933134549560834 3.1453241302064194 Q 0.6959262420582256 3.146423055166459 0.6974238945796449 3.147736291162517 Q 0.6989215471010642 3.1490495271585743 0.6997625816244546 3.151111589415342 Q 0.701857063122589 3.155067507024199 0.7000255215225233 3.159422152194436 L 0.6745060418949412 3.220096874899737 L 0.7693609057062477 3.1814092868237784 Q 0.774019545444474 3.1792687011943035 0.7776484164196714 3.180794985861025 Q 0.7812772873948688 3.1823212705277464 0.7829132523103093 3.1857426729119123 Q 0.7845492172257497 3.189164075296078 0.783145035332366 3.1925026365932596 Q 0.7817408534389823 3.195841197890441 0.7789000704108481 3.197721368352557 L 0.6946757220720521 3.230630132648147 L 0.730248427062544 3.329641540214355 Q 0.733002051289417 3.339341337631504 0.7244173884529908 3.341880650822359 Q 0.7198347473567618 3.3430282046444484 0.7163510312205723 3.3415629713643957 Q 0.7117060763723195 3.3396093269909923 0.7108027280969054 3.334446066538732 L 0.6715755753348361 3.2270643071721157 L 0.6412940875470833 3.2990611073200324 M 0.9740566978667698 3.293182706597522 Q 0.9723413648866731 3.2995701859111963 0.9750885577561799 3.3063408063409256 Q 0.9778357506256867 3.3131114267706554 0.9835472053466232 3.3185584304528564 Q 0.9892586600675596 3.324005434135057 0.9970401564467023 3.329030035909618 Q 1.0048216528258451 3.3340546376841784 1.0134339637269367 3.339628452708928 Q 1.0220462746280283 3.3452022677336775 1.0301910548017927 3.3513027315987727 Q 1.0383358349755574 3.3574031954638675 1.0435571945593232 3.3646751932356893 Q 1.054971528884684 3.380458415915591 1.0494987998529464 3.4008375165830262 Q 1.0468849591213703 3.4105708183943393 1.0399945219957576 3.418014302477113 Q 1.0331040848701447 3.425457786559887 1.0233396435324764 3.4290315063930867 Q 1.0033432301298126 3.436705594899831 0.9753599874222889 3.42919080279655 Q 0.9488975731227827 3.4220844233075773 0.9324166691428676 3.4033100868081467 Q 0.9220696217915288 3.392052795649123 0.9235399072030404 3.38657781338026 Q 0.9248468275688284 3.3817111624746037 0.9305303037031023 3.3799764260243563 Q 0.9320736965209634 3.3790864933893894 0.9338986906105845 3.37957658852656 Q 0.9357236847002056 3.3800666836637303 0.9374444318571215 3.3821592897317805 Q 0.9391651790140373 3.38425189579983 0.9414829753292385 3.3871570395382413 Q 0.9438007716444397 3.390062183276653 0.9475168725833658 3.3938319881517782 Q 0.951232973522292 3.3976017930269036 0.955527846767916 3.401037873163916 Q 0.9663875536662687 3.4091718249840426 0.9780275320900642 3.4119715951711855 Q 0.9896675105138597 3.414771365358329 0.9970717338050494 3.4151292349761313 Q 1.0044759570962392 3.415487104593934 1.0109311296394436 3.4133074018262035 Q 1.0246131711347828 3.4085030299732586 1.0281846377308566 3.3964180852319794 Q 1.0322687638739443 3.3812098011518037 1.019570073592639 3.368994884128283 Q 1.0138586188717027 3.363547880446082 1.0062700465947925 3.35841203709215 Q 0.9986814743178823 3.3532761937382185 0.9901395637347308 3.3480473856565034 Q 0.9815976531515792 3.3428185775747883 0.9735345555006764 3.33641394802809 Q 0.9654714578497736 3.3300093184813915 0.9599459325844042 3.322655638186708 Q 0.9482274325774401 3.3067907329839445 0.953210066472007 3.28823662640613 Q 0.9558239072035831 3.2785033245948174 0.9628255859085668 3.271252764614276 Q 0.9698272646135504 3.2640022046337345 0.979510023428357 3.260732650482139 Q 0.9983488922176249 3.2537260114516195 1.0221554979055612 3.259793082553233 Q 1.0565262199267589 3.269023207636611 1.0715508277884938 3.296863396471129 Q 1.0722773953777374 3.299015120652197 1.0716647764562741 3.3012963632642234 Q 1.071052157534811 3.30357760587625 1.0704916620797005 3.3050575930228363 Q 1.06993116662459 3.3065375801694232 1.0680019256022637 3.307649995963132 Q 1.0651376231252834 3.3098157094375313 1.0616397177868429 3.3088763604246214 Q 1.0581418124484023 3.307937011411711 1.0554128964304827 3.302312653390455 Q 1.0473358094862488 3.292317153777533 1.0418242735142107 3.2885543435490736 Q 1.0309645666158578 3.280420391728947 1.019406270714924 3.2773164558602006 Q 1.0045021523163515 3.2733140122399744 0.9922227030029934 3.2765384375718836 Q 0.9774873638269634 3.2804077479701745 0.9740566978667698 3.293182706597522 M 1.1473663648190824 3.309935596413794 Q 1.14271674497701 3.309099824605436 1.1410483854690576 3.305920025856292 Q 1.139380025961105 3.3027402271071487 1.1399650662269558 3.299485493217698 Q 1.1405501064928063 3.2962307593282474 1.143221392170788 3.293831014266904 Q 1.14589267784877 3.291431269205561 1.1505422976908422 3.292267041013919 L 1.2636830471812697 3.312604155017294 Q 1.2680226923672038 3.3133842087050946 1.269691051875156 3.3165640074542386 Q 1.2713594113831086 3.319743806203382 1.270774371117258 3.322998540092833 Q 1.2701893308514074 3.3262532739822834 1.2673630578453565 3.328625159983348 Q 1.2645367848393056 3.3309970459844127 1.2605071143095097 3.330272710417169 L 1.2146308652010624 3.3220264285747048 L 1.1892234022269828 3.4633748717737043 Q 1.1879418854541675 3.470504288864882 1.1812966473669466 3.4718697237028433 Q 1.1793253631890033 3.4721553642917766 1.1762256166276217 3.4715981830862046 Q 1.1731258700662401 3.4710410018806326 1.1701618938131781 3.467948305305398 Q 1.167197917560116 3.464855608730164 1.168145125609588 3.4595860395758153 L 1.1935525885836678 3.318237596376816 L 1.1473663648190824 3.309935596413794 M 1.4650074597190514 3.4937743637119367 Q 1.4651509260803153 3.4956847047469934 1.4649807299396438 3.4975666797586054 Q 1.4648105337989723 3.499448654770217 1.463699350152495 3.501245531711493 Q 1.4625881665060176 3.5030424086527687 1.4609347559260055 3.5038415660413484 Q 1.4575428366956455 3.5063808683243134 1.4537788866724222 3.5060404760429704 Q 1.4462509866259756 3.5053596914802845 1.4443373731028435 3.4985458507520817 L 1.4324001993448898 3.459202752869096 L 1.3477113238223648 3.4515439265388794 L 1.3292232348925965 3.4881355201476762 Q 1.3264319108866993 3.4945238705242003 1.3198449983460585 3.49392818403185 Q 1.3132580858054177 3.4933324975395 1.310318386706144 3.4873745462467673 Q 1.3095475953410098 3.4854074731648197 1.309689425458236 3.4838391606551435 Q 1.3098312555754623 3.482270848145467 1.31099917126883 3.4798466462003206 L 1.3803665985288047 3.3457147455846465 Q 1.3880581497397728 3.3305989409567878 1.3964119369542067 3.3291408200528174 Q 1.3986359404911988 3.329025719714999 1.4021429600593773 3.328710420969026 Q 1.408416210098083 3.329277741437931 1.4112975409064286 3.3323843641898008 Q 1.41597574865605 3.336602170588148 1.4198880737726498 3.3492888645387477 L 1.4650074597190514 3.4937743637119367 M 1.355174310601733 3.4354587683817694 L 1.4282576735526529 3.4420680518445117 L 1.3998987717191278 3.346532451532446 L 1.355174310601733 3.4354587683817694 M 1.5634533629687566 3.5096860728129724 Q 1.556209711997366 3.5096662258067703 1.553392498144389 3.503359632655308 Q 1.552452851584521 3.5014673958358755 1.552458891977713 3.4992628064098 L 1.5528730903680177 3.3480909600503446 Q 1.5528929373742197 3.340847309078954 1.559512746045638 3.3386608408324547 Q 1.5614032570384442 3.3383510769657514 1.5645535334175793 3.3380447647523 Q 1.5677038097967144 3.3377384525388494 1.5708463199560314 3.3402666124446383 Q 1.5739888301153482 3.342794772350427 1.573974160589025 3.3481487752423247 L 1.5735798092049225 3.4920769706303894 L 1.6516852631573076 3.492290973132047 Q 1.6564093833560407 3.492303916831744 1.6584491673456634 3.494986527214228 Q 1.660488951335286 3.497669137596712 1.660479890745498 3.5009760217358252 Q 1.66047083015571 3.504282905874938 1.6582584745098166 3.507111337600986 Q 1.6560461188639228 3.5099397693270338 1.651636940011772 3.50992768854065 L 1.5634533629687566 3.5096860728129724 M 1.759160054669393 3.5050787872298557 Q 1.7519385065776016 3.5056445755797934 1.7486206935417372 3.499586363984733 Q 1.7475311555254327 3.4977762803542576 1.7473589590711038 3.4955784178915383 L 1.7355512022028345 3.3448678490193684 Q 1.7349854138528966 3.337646300927577 1.741406804786725 3.334931849101871 Q 1.7432660874041517 3.3344702717892005 1.7463812914288463 3.333910296502628 Q 1.749496495453541 3.3333503212160553 1.7528330949195157 3.335616169095836 Q 1.7561696943854903 3.3378820169756165 1.756587885774575 3.343219682956506 L 1.7678298542929063 3.4867087037368845 L 1.8456969815435276 3.4806080293549453 Q 1.850406686820783 3.480239036952812 1.8526566548021357 3.482747973235665 Q 1.8549066227834887 3.485256909518519 1.855164917464982 3.4885537032125975 Q 1.8554232121464755 3.491850496906676 1.8534467451250365 3.4948485165273584 Q 1.8514702781035974 3.4978465361480406 1.847074553178159 3.4981909290566984 L 1.759160054669393 3.5050787872298557 M 1.9186921788149522 3.326266048354304 Q 1.917741881668134 3.319720882615534 1.9235681026421356 3.316010766682901 Q 1.9253928977509833 3.3154275786533924 1.9287760656547763 3.314618129398451 Q 1.9321592335585693 3.3138086801435094 1.9354821598296579 3.3158721802870996 Q 1.9388050861007464 3.3179356804306894 1.9395743742672185 3.323234147933503 L 1.9612954519087784 3.4728379362482467 Q 1.9623815057908565 3.480318125663984 1.9561531057676924 3.4834501447237254 Q 1.9543735629039314 3.484345007312223 1.9512568173140408 3.484797529763089 Q 1.9481400717241504 3.4852500522139547 1.944661308173567 3.4832091781929084 Q 1.941182544622984 3.4811683041718617 1.940413256456512 3.4758698366690477 L 1.9186921788149522 3.326266048354304 M 2.0629792842549524 3.379822488032082 Q 2.0657204452408506 3.3919569577791484 2.071553514202999 3.404200165374357 Q 2.077386583165147 3.4164433729695665 2.086638212918016 3.4245241095355645 Q 2.0958898426708847 3.4326048461015626 2.1076532358387916 3.4360821993084922 Q 2.1194166290066985 3.4395595525154214 2.1344695155283757 3.4361591249632943 Q 2.149522402050053 3.4327586974111677 2.1589559307187933 3.424492987038998 Q 2.168389459387534 3.4162272766668282 2.172961909093348 3.405023698471326 Q 2.1775343587991625 3.3938201202758234 2.1778453251519845 3.3801889830675016 Q 2.178156291504806 3.3665578458591794 2.175415130518908 3.354423376112113 Q 2.1726739695330095 3.342288906365047 2.166568397045441 3.330268696133368 Q 2.1604628245578716 3.318248485901689 2.151518396570751 3.3100983528550354 Q 2.142573968583631 3.3019482198083816 2.1305033736499754 3.2985402630821077 Q 2.11843277871632 3.2951323063558338 2.103379892194643 3.298532733907961 Q 2.088327005672966 3.301933161460088 2.079200678769974 3.310129475351602 Q 2.0700743518669817 3.318325789243116 2.0651947003954194 3.329598763919274 Q 2.0603150489238566 3.3408717385954323 2.0602765860964554 3.354279878440224 Q 2.060238123269054 3.367688018285016 2.0629792842549524 3.379822488032082 M 2.0398350571028305 3.3845664214326336 Q 2.0358100612248027 3.36674871901922 2.037423874248433 3.349594487029151 Q 2.039037687272064 3.3324402550390824 2.046914877523254 3.318714309364095 Q 2.062391672103012 3.290033610951127 2.099186487512178 3.2813988315066998 Q 2.1366651029334967 3.27293246086671 2.1633443467419404 3.2924130431956025 Q 2.176049674795901 3.301489424666661 2.184727120924845 3.3163188745547654 Q 2.1934045670537894 3.3311483244428697 2.1974295629318172 3.3489660268562833 Q 2.201523955290501 3.3670909310354458 2.200167837870728 3.3846712674338093 Q 2.198811720450955 3.4022516038321733 2.1911723354848576 3.415600951260756 Q 2.175388339139351 3.44435104615438 2.1379097237180327 3.4528174167943697 Q 2.1007383100624626 3.461214390953704 2.0747428662661713 3.4419022174292486 Q 2.061660939965807 3.4325880306730974 2.0527951947136605 3.4176396781424465 Q 2.0439294494615137 3.4026913256117957 2.0398350571028305 3.3845664214326336 M 2.260675855183996 3.255775395502913 Q 2.2587676656638735 3.250103890565244 2.2614429967137797 3.2452162840908425 Q 2.263819827503809 3.2404291086438164 2.2677979690873413 3.2384260737408135 Q 2.276155976363906 3.2356140049743165 2.28314146312419 3.240574114253619 L 2.413594897451435 3.3418937298812836 L 2.3707108487623576 3.2144341189136743 Q 2.3691039523243593 3.2096581147556376 2.370292367719374 3.2072645270321245 Q 2.3725715603042756 3.2031747831322277 2.375705813032987 3.202120257344791 Q 2.378840065761699 3.201065731557355 2.3808319293757125 3.20106014591286 Q 2.382823792989726 3.2010545602683655 2.384419518138735 3.2018468371983753 Q 2.3885064692163844 3.2031300979762696 2.3898148653945053 3.2080065331616816 L 2.436917017233328 3.348003155044138 Q 2.4399299480545746 3.356958162840457 2.4324786128466314 3.3634526657528565 Q 2.430690404109615 3.3650511837241126 2.4274069012509645 3.3661559250252364 Q 2.420242895013909 3.368566269682234 2.41266040773387 3.363807022457681 L 2.284899061390016 3.2635753911976555 L 2.3273813859695935 3.389841001125756 Q 2.328787420352842 3.3940200047640383 2.327002004438073 3.396614454542301 Q 2.324424311593294 3.400804629469573 2.320543808214889 3.4021102328254464 Q 2.316663304836484 3.40341583618132 2.3130743196623382 3.4021311789923017 Q 2.309485334488192 3.4008465218032833 2.307978869077569 3.3963690179051236 L 2.260675855183996 3.255775395502913 M 2.600288658321145 3.153846356703822 Q 2.6032604204772056 3.159754900424827 2.609817430571548 3.162978871313101 Q 2.61637444066589 3.166202842201375 2.6242624934151677 3.1664658782594097 Q 2.6321505461644454 3.166728914317445 2.641302216811716 3.165298797799319 Q 2.650453887458987 3.163868681281193 2.6605911482643085 3.162295386537011 Q 2.6707284090696306 3.1607220917928296 2.6808673356173864 3.159853027981889 Q 2.6910062621651423 3.1589839641709485 2.6997433898161516 3.160935155577842 Q 2.718767619468275 3.165115566131571 2.7282489558709435 3.183966634193825 Q 2.732777355346845 3.1929701293877373 2.7325900727579233 3.2031115545491446 Q 2.7324027901690013 3.2132529797105516 2.7274948282879543 3.222419642039729 Q 2.717680570268294 3.2414571976313247 2.691795521585796 3.2544763461245414 Q 2.6673172690273463 3.266787932199648 2.6425210109105377 3.263747950227065 Q 2.6273059581191673 3.26223462221051 2.624758733413973 3.257170156163934 Q 2.622494533676022 3.252668408566978 2.625581156436759 3.2475906165809296 Q 2.626140543401511 3.245899129747203 2.627828698750369 3.2450500548454713 Q 2.629516854099228 3.24420097994374 2.6321939310910056 3.2446171886824353 Q 2.6348710080827837 3.245033397421131 2.63853450810383 3.245658543400391 Q 2.642198008124876 3.246283689379651 2.647480572995404 3.2466233117780163 Q 2.6527631378659318 3.2469629341763815 2.6582554728482415 3.246668249012099 Q 2.6717740415785824 3.2455094972641785 2.6823241796377317 3.239850663661736 Q 2.692874317696881 3.2341918300592933 2.6986380174493956 3.2295302468119402 Q 2.7044017172019106 3.224868663564587 2.7077680334450234 3.2189451281616757 Q 2.7147803594136244 3.2062523139389887 2.7094012192935577 3.1948564324629762 Q 2.7023255951124616 3.1807884712224883 2.6847181560389917 3.1801258838500988 Q 2.6768301032897135 3.1798628477920636 2.667748356013037 3.1810815284559735 Q 2.65866660873636 3.1823002091198838 2.648811540027065 3.1840841068470644 Q 2.63895647131777 3.185868004574245 2.6286760322863922 3.1864557091603753 Q 2.6183955932550145 3.187043413746506 2.6093771063791955 3.1852337348232345 Q 2.5900715175022624 3.1811948367531278 2.581439256001325 3.1640319240397323 Q 2.5769108565254237 3.15502842884582 2.5773095749685613 3.1449569270550066 Q 2.5777082934116993 3.134885425264194 2.5827577677763682 3.126000122159826 Q 2.592152485572465 3.108231181693525 2.6139569926240043 3.0969118487462057 Q 2.645750585027508 3.080920938096929 2.6754947828437814 3.091695800138129 Q 2.677469294644752 3.0928179055525002 2.6785306382719165 3.0949280997385733 Q 2.6795919818990805 3.097038293924647 2.6801588647047856 3.0985158462905065 Q 2.68072574751049 3.099993398656366 2.680026513804551 3.1021077571985245 Q 2.67933061158348 3.1056305776071658 2.6760949804981675 3.107257971168818 Q 2.6728593494128554 3.10888536473047 2.6670789922359996 3.1065046386454087 Q 2.6543978382103512 3.1044219292094977 2.647780066328803 3.1052826643082674 Q 2.6342614975984615 3.106441416056188 2.6235698470556903 3.111818890433821 Q 2.609783245040012 3.118753002131295 2.602765921844109 3.1293331235542574 Q 2.594345134009025 3.1420292692618124 2.600288658321145 3.153846356703822 M 2.740774512236326 3.050984192493456 Q 2.7367483481431463 3.0534555244999315 2.733386672362444 3.0521931143137127 Q 2.7300249965817414 3.050930704127494 2.728295064177208 3.048112389262268 Q 2.7265651317726753 3.0452940743970425 2.726961209145607 3.041725087671446 Q 2.7273572865185387 3.0381561009458498 2.731383450611718 3.0356847689393742 L 2.829353443545751 2.975549023448465 Q 2.8331111966993854 2.9732424469090875 2.836472872480088 2.9745048570953063 Q 2.8398345482607903 2.9757672672815256 2.8415644806653235 2.978585582146751 Q 2.8432944130698563 2.981403897011977 2.842764130227152 2.985055261471122 Q 2.8422338473844477 2.9887066259302677 2.838744505170359 2.9908484470025467 L 2.799019686117655 3.0152322561331073 L 2.874148179114517 3.1376276445657623 Q 2.87793755485778 3.143801096175304 2.873887379803661 3.149243493033634 Q 2.872606425100586 3.150768847715315 2.869922315705133 3.152416402386299 Q 2.86723820630968 3.1540639570572826 2.8629676422378947 3.1537289796790025 Q 2.8586970781661094 3.1533940023007223 2.855896235225437 3.1488310163284523 L 2.780767742228575 3.0264356278957973 L 2.740774512236326 3.050984192493456 M 2.9006430662024174 2.9402633107406415 Q 2.897818898974725 2.936476285699601 2.898708978772203 2.933455253161749 Q 2.8997317333589505 2.927978021531583 2.903140055895887 2.92543627102666 Q 2.906548378432823 2.922894520521737 2.9107055184829878 2.922937350150907 Q 2.914862658533152 2.9229801797800774 2.918063381391203 2.9272721414932565 L 2.9788771156941793 3.0088194140436597 Q 2.991680007126385 3.0259872608963763 3.0105721948566857 3.027613492656074 Q 3.027072374015563 3.0286663034752523 3.041968005843655 3.017557912379662 Q 3.057116106007817 3.0062612434688925 3.060560925398419 2.9903344852505342 Q 3.0647674435447194 2.9722681867968213 3.051587996482155 2.954595403271966 L 2.990774262179179 2.8730481307215627 Q 2.9879500949514863 2.8692611056805224 2.989092643085034 2.8660517953274907 Q 2.9898629293357124 2.8607628415125044 2.9932712518726485 2.8582210910075814 Q 2.996679574409585 2.8556793405026584 3.000836714459749 2.8557221701318283 Q 3.0049938545099133 2.8557649997609986 3.0081945773679646 2.8600569614741778 L 3.069008311670941 2.941604234024581 Q 3.087082981928172 2.96584119428724 3.081280288254605 2.991776732942542 Q 3.075674459891198 3.014815326354282 3.052511563493707 3.0316961391995463 Q 3.0297894132474643 3.0486411425657005 3.006044724105936 3.0478835218660305 Q 2.9795314707626246 3.0460475435537036 2.9614568005053936 3.0218105832910447 L 2.9006430662024174 2.9402633107406415 M 3.1933438809971566 2.9157875272898375 Q 3.188460130073656 2.920247486497322 3.1816543946304083 2.917932464250289 Q 3.1799150014355555 2.916961864863335 3.17866090793418 2.9151215688789542 L 3.0769313622015617 2.8037255359095767 Q 3.0726837820039576 2.7990743445538615 3.0747662446832047 2.792480988120494 Q 3.0755244650602784 2.7905090353578554 3.0773849416025647 2.788810003278814 L 3.107617685414713 2.7612007319943874 Q 3.157617992488651 2.715539244870143 3.2044701325293223 2.7392881758617893 Q 3.2197200938211425 2.747113512631139 3.23371692791533 2.762907382682665 Q 3.262175715239278 2.794070364765956 3.2591553397692947 2.826257779694069 Q 3.2561349642993114 2.858445194622182 3.2240417439448765 2.88775349798565 L 3.1933438809971566 2.9157875272898375 M 3.190207197788102 2.896473543429051 L 3.214858511973392 2.873961368381749 Q 3.252068042819113 2.8399807268009165 3.2332960351105453 2.8016775806133203 Q 3.227591589528766 2.7898266497833273 3.216335502005115 2.7775009926906824 Q 3.2050794144814643 2.765175335598037 3.1924385429819235 2.758805897909119 Q 3.179797671482383 2.7524364602202 3.1668742721721643 2.752296162618605 Q 3.1425746682946056 2.7523086686569176 3.1167605562703864 2.7758827387536202 L 3.0967604334408114 2.794147333603318 L 3.190207197788102 2.896473543429051 M 3.240964707521142 2.645888687572465 Q 3.236150212845474 2.6413540541547365 3.2384055564775482 2.6348254068084067 Q 3.2394719043742484 2.633233901976419 3.2416179268942176 2.63049608888832 Q 3.2437639494141863 2.627758275800221 3.2476494244081753 2.627307769510839 Q 3.2515348994021647 2.6268572632214573 3.2554323474729436 2.630528156940571 L 3.365477940059646 2.734176920774371 Q 3.370980219688981 2.739359358966061 3.3680504178298083 2.7456853981143055 Q 3.3672133315843302 2.7474928378709467 3.365053982337793 2.74978545438317 Q 3.3628946330912552 2.7520780708953927 3.3589011906349393 2.7526432080103858 Q 3.354907748178624 2.753208345125379 3.3510103001078444 2.749537451406265 L 3.240964707521142 2.645888687572465 M 3.3872634568324 2.5981002268609665 Q 3.3969562739497055 2.605898214801682 3.409138025958911 2.611858562419294 Q 3.421319777968117 2.6178189100369056 3.433590093457524 2.618393639820058 Q 3.445860408946931 2.6189683696032104 3.4572349688257447 2.6143761161572665 Q 3.4686095287045586 2.6097838627113226 3.4782829820993704 2.5977598617303617 Q 3.4879564354941825 2.5857358607494003 3.490203677334594 2.57339635771195 Q 3.4924509191750053 2.5610568546745 3.489064387415527 2.5494396750108725 Q 3.4856778556560495 2.5378224953472457 3.4774444519712566 2.526954392227201 Q 3.469211048286464 2.516086289107156 3.4595182311691586 2.5082883011664405 Q 3.4498254140518534 2.5004903132257246 3.4375689385139876 2.4948740620913448 Q 3.4253124629761222 2.4892578109569654 3.4132395649029355 2.488437693398691 Q 3.401166666829749 2.487617575840417 3.389594689534715 2.4924552170614827 Q 3.3780227122396806 2.497292858282548 3.3683492588448685 2.5093168592635093 Q 3.3586758054500567 2.5213408602444702 3.356625981025866 2.533434975506799 Q 3.3545761566016754 2.545529090769128 3.3577652709449324 2.5573916582078766 Q 3.3609543852881893 2.569254225646625 3.369262512501642 2.579778232283438 Q 3.3775706397150946 2.5903022389202506 3.3872634568324 2.5981002268609665 M 3.3720890689531684 2.61620818387076 Q 3.3578565779961127 2.6047579737299618 3.3484525097655373 2.5903206759094197 Q 3.3390484415349624 2.5758833780888777 3.3366812860069635 2.560235749334577 Q 3.3309654238504787 2.528150822161094 3.3544101260218353 2.4985068717302745 Q 3.3784950508007547 2.4685695631654325 3.4115024867545904 2.46723378256347 Q 3.4270966091693733 2.466440430384619 3.4431141608433404 2.472657237738586 Q 3.459131712517307 2.4788740450925526 3.4733642034743633 2.49032425523335 Q 3.487842082206541 2.5019718827903685 3.497712940807909 2.5165826128476807 Q 3.5075837994092764 2.5311933429049933 3.5099029845783747 2.5463981664679514 Q 3.5154214293186388 2.5787284814165563 3.4913365045397193 2.6086657899813983 Q 3.46744899717702 2.638357710771119 3.4350817838307472 2.6394001332390586 Q 3.4190448562246223 2.64024145577681 3.4028059019549843 2.634048633602294 Q 3.3865669476853464 2.627855811427778 3.3720890689531684 2.61620818387076 M 3.498563929730766 2.379490464318673 Q 3.5040917580067337 2.3831216313165715 3.511382289486543 2.3826352976783607 Q 3.518672820966352 2.38214896404015 3.525635659693275 2.3784328584165064 Q 3.532598498420198 2.374716752792863 3.5398091236785256 2.368902529519243 Q 3.547019748936853 2.363088306245623 3.5550123422556403 2.356657305932479 Q 3.563004935574428 2.3502263056193353 3.571351076014836 2.3444043606524656 Q 3.5796972164552447 2.3385824156855963 3.588239434689587 2.3359037863470666 Q 3.606805211768725 2.3300123461409514 3.624441616268242 2.34159749799139 Q 3.6328649736411456 2.347130704845331 3.6377733355886033 2.3560071659681703 Q 3.642681697536061 2.36488362709101 3.6430144226932097 2.3752761764439247 Q 3.6440334201291287 2.396670330496029 3.628125450424049 2.420887482943127 Q 3.613082044289898 2.443788485800709 3.590087688765902 2.4535535009581544 Q 3.5761542896188065 2.45985019702336 3.5714161510965483 2.4567377681680185 Q 3.567204472410096 2.453971164741048 3.5673387766580342 2.4480303589127397 Q 3.566977507843164 2.4462857883843845 3.5680149841282778 2.4447064088769648 Q 3.5690524604133915 2.4431270293695455 3.5715789990022073 2.442148983515151 Q 3.574105537591023 2.4411709376607567 3.5775908178011093 2.4398806424399755 Q 3.581076098011196 2.438590347219194 3.5858207866690655 2.436243271480175 Q 3.590565475326935 2.433896195741156 3.595174688179228 2.4308949060540037 Q 3.6063028754331055 2.4231323127648445 3.612610328654257 2.412956663170336 Q 3.6189177818754086 2.402781013575827 3.621578624712162 2.3958621618931244 Q 3.624239467548916 2.3889433102104216 3.6241931373894185 2.3821302191179354 Q 3.623919842662989 2.3676317516687853 3.613563558661045 2.360452013183456 Q 3.600402062765883 2.3518063774741735 3.5848221319873987 2.36003600016842 Q 3.5778592932604756 2.3637521057920634 3.5706035094002893 2.369348257749639 Q 3.5633477255401034 2.3749444097072145 3.555704818496312 2.3814167077755926 Q 3.5480619114525203 2.3878890058439706 3.539452541094209 2.393538038096654 Q 3.5308431707358974 2.399187070349338 3.522128039787369 2.402128929605771 Q 3.503389349994046 2.4082835997297893 3.4873323250019483 2.397735924164465 Q 3.4789089676290446 2.392202717310524 3.4742186769976313 2.3832810975858254 Q 3.469528386366218 2.374359477861127 3.469458891126972 2.364139841222398 Q 3.468710845302206 2.3440541150665606 3.4819348070907834 2.3233492687559223 Q 3.5014739437937616 2.293604288032856 3.532620705079508 2.288064051833085 Q 3.5348917354436704 2.2880486084465854 3.5368659598279444 2.289345453802978 Q 3.538840184212219 2.2906422991593702 3.540069877444642 2.29163847768925 Q 3.5412995706770656 2.29263465621913 3.5417511566956534 2.2948153693795748 Q 3.542909836957483 2.298214193232568 3.5409213407443483 2.3012413372884555 Q 3.5389328445312134 2.3042684813443426 3.532736530478251 2.3050967795643 Q 3.520712892880447 2.3096334617146512 3.5154120291714115 2.3136876710734167 Q 3.5042838419175335 2.321450264362576 3.497713158778479 2.331453001242899 Q 3.489240435783382 2.3443512672201576 3.488453089144949 2.357022568630484 Q 3.48750827317883 2.372228130322876 3.498563929730766 2.379490464318673" fill="#4e888f" fill-rule="nonzero"></path></g><g transform="matrix(1,0,0,1,0,0)" clip-path="url(#SvgjsClipPath35966)"><g clip-path="url(#SvgjsClipPath3596194beb9f3-b74f-46ce-b721-803bf2aac675)"><path d=" M 1.5198650850099447 0.8670647422449749 L 1.4525740088575787 0.8670647422449749 L 1.4525740088575787 0.5159687459145745 C 1.4526640894416443 0.42681288079106466 1.5249167264997514 0.35456024373295963 1.6140725916232568 0.3544701631488964 L 2.5501875910114347 0.3544701631488964 C 2.5929077910839022 0.3544171869747762 2.6275246589404726 0.31979601888617243 2.627572328586654 0.27707581256280234 L 2.627572328586654 0.14466620071670655 C 2.6275246589404677 0.10194599439333189 2.5929077910838934 0.06732482630472815 2.550187591011428 0.0672718501306102 L 2.4014743127147096 0.0672718501306102 L 2.4014743127147096 -0.000019226021755701683 L 2.5501875910114347 -0.000019226021755701683 C 2.6300540576160643 0.00007613052735549131 2.694773354755782 0.06479972795260001 2.694863404739018 0.14466620071670655 L 2.694863404739018 0.27707581256280234 C 2.694768608022455 0.35287429696276706 2.636266980480288 0.4157890066599547 2.5606753858803293 0.42138633187698626 C 2.5590049552844834 0.42163825753893197 2.5573178743865608 0.42176358354849375 2.5556285551688958 0.4217612393012646 L 1.6140725916232546 0.4217612393012646 C 1.5620629924718386 0.42180893754220977 1.5199127832508896 0.4639591467631587 1.5198650850099422 0.5159687459145723 Z" fill="#cccccc" transform="matrix(1,0,0,1,0,0)" fill-rule="nonzero"></path></g><g clip-path="url(#SvgjsClipPath3596194beb9f3-b74f-46ce-b721-803bf2aac675)"><path d=" M 0 0.6885415172127523 L 3.2088134183690205 0.6885415172127523 L 3.2088134183690205 2.1808076479893472 L 0 2.1808076479893472 Z" fill="#525252" transform="matrix(1,0,0,1,0,0)" fill-rule="nonzero"></path></g><g clip-path="url(#SvgjsClipPath3596194beb9f3-b74f-46ce-b721-803bf2aac675)"><path d=" M 0.22068589074711908 0.9740575533272352 L 0.4557336197473285 0.9740575533272352 L 0.4557336197473285 1.1858321829896055 L 0.22068589074711908 1.1858321829896055 Z" fill="#ffce67" transform="matrix(1,0,0,1,0,0)" fill-rule="nonzero"></path></g><g clip-path="url(#SvgjsClipPath3596194beb9f3-b74f-46ce-b721-803bf2aac675)"><path d=" M 0.5370693047937795 0.9740575533272352 L 0.7721170337939889 0.9740575533272352 L 0.7721170337939889 1.1858321829896055 L 0.5370693047937795 1.1858321829896055 Z" fill="#ffce67" transform="matrix(1,0,0,1,0,0)" fill-rule="nonzero"></path></g><g clip-path="url(#SvgjsClipPath3596194beb9f3-b74f-46ce-b721-803bf2aac675)"><path d=" M 0.8534527188404399 0.9740575533272352 L 1.0885004478406493 0.9740575533272352 L 1.0885004478406493 1.1858321829896055 L 0.8534527188404399 1.1858321829896055 Z" fill="#ffce67" transform="matrix(1,0,0,1,0,0)" fill-rule="nonzero"></path></g><g clip-path="url(#SvgjsClipPath3596194beb9f3-b74f-46ce-b721-803bf2aac675)"><path d=" M 1.1698361328871003 0.9740575533272352 L 1.4048838618873098 0.9740575533272352 L 1.4048838618873098 1.1858321829896055 L 1.1698361328871003 1.1858321829896055 Z" fill="#ffce67" transform="matrix(1,0,0,1,0,0)" fill-rule="nonzero"></path></g><g clip-path="url(#SvgjsClipPath3596194beb9f3-b74f-46ce-b721-803bf2aac675)"><path d=" M 1.4862195469337607 0.9740575533272352 L 1.72126727593397 0.9740575533272352 L 1.72126727593397 1.1858321829896055 L 1.4862195469337607 1.1858321829896055 Z" fill="#ffce67" transform="matrix(1,0,0,1,0,0)" fill-rule="nonzero"></path></g><g clip-path="url(#SvgjsClipPath3596194beb9f3-b74f-46ce-b721-803bf2aac675)"><path d=" M 1.8026029609804213 0.9740575533272352 L 2.0376506899806306 0.9740575533272352 L 2.0376506899806306 1.1858321829896055 L 1.8026029609804213 1.1858321829896055 Z" fill="#ffce67" transform="matrix(1,0,0,1,0,0)" fill-rule="nonzero"></path></g><g clip-path="url(#SvgjsClipPath3596194beb9f3-b74f-46ce-b721-803bf2aac675)"><path d=" M 2.118986375027082 0.9740575533272352 L 2.3540341040272907 0.9740575533272352 L 2.3540341040272907 1.1858321829896055 L 2.118986375027082 1.1858321829896055 Z" fill="#ffce67" transform="matrix(1,0,0,1,0,0)" fill-rule="nonzero"></path></g><g clip-path="url(#SvgjsClipPath3596194beb9f3-b74f-46ce-b721-803bf2aac675)"><path d=" M 2.435369789073742 0.9740575533272352 L 2.670417518073952 0.9740575533272352 L 2.670417518073952 1.1858321829896055 L 2.435369789073742 1.1858321829896055 Z" fill="#ffce67" transform="matrix(1,0,0,1,0,0)" fill-rule="nonzero"></path></g><g clip-path="url(#SvgjsClipPath3596194beb9f3-b74f-46ce-b721-803bf2aac675)"><path d=" M 2.751753203120402 0.9740575533272352 L 2.986800932120612 0.9740575533272352 L 2.986800932120612 1.1858321829896055 L 2.751753203120402 1.1858321829896055 Z" fill="#ffce67" transform="matrix(1,0,0,1,0,0)" fill-rule="nonzero"></path></g><g clip-path="url(#SvgjsClipPath3596194beb9f3-b74f-46ce-b721-803bf2aac675)"><path d=" M 0.22068589074711908 1.313166125091637 L 0.4557336197473285 1.313166125091637 L 0.4557336197473285 1.5249311417431286 L 0.22068589074711908 1.5249311417431286 Z" fill="#ffce67" transform="matrix(1,0,0,1,0,0)" fill-rule="nonzero"></path></g><g clip-path="url(#SvgjsClipPath3596194beb9f3-b74f-46ce-b721-803bf2aac675)"><path d=" M 0.5370693047937795 1.313166125091637 L 0.7721170337939889 1.313166125091637 L 0.7721170337939889 1.5249311417431286 L 0.5370693047937795 1.5249311417431286 Z" fill="#ffce67" transform="matrix(1,0,0,1,0,0)" fill-rule="nonzero"></path></g><g clip-path="url(#SvgjsClipPath3596194beb9f3-b74f-46ce-b721-803bf2aac675)"><path d=" M 0.8534527188404399 1.313166125091637 L 1.0885004478406493 1.313166125091637 L 1.0885004478406493 1.5249311417431286 L 0.8534527188404399 1.5249311417431286 Z" fill="#ffce67" transform="matrix(1,0,0,1,0,0)" fill-rule="nonzero"></path></g><g clip-path="url(#SvgjsClipPath3596194beb9f3-b74f-46ce-b721-803bf2aac675)"><path d=" M 1.1698361328871003 1.313166125091637 L 1.4048838618873098 1.313166125091637 L 1.4048838618873098 1.5249311417431286 L 1.1698361328871003 1.5249311417431286 Z" fill="#ffce67" transform="matrix(1,0,0,1,0,0)" fill-rule="nonzero"></path></g><g clip-path="url(#SvgjsClipPath3596194beb9f3-b74f-46ce-b721-803bf2aac675)"><path d=" M 1.4862195469337607 1.313166125091637 L 1.72126727593397 1.313166125091637 L 1.72126727593397 1.5249311417431286 L 1.4862195469337607 1.5249311417431286 Z" fill="#ffce67" transform="matrix(1,0,0,1,0,0)" fill-rule="nonzero"></path></g><g clip-path="url(#SvgjsClipPath3596194beb9f3-b74f-46ce-b721-803bf2aac675)"><path d=" M 1.8026029609804213 1.313166125091637 L 2.0376506899806306 1.313166125091637 L 2.0376506899806306 1.5249311417431286 L 1.8026029609804213 1.5249311417431286 Z" fill="#ffce67" transform="matrix(1,0,0,1,0,0)" fill-rule="nonzero"></path></g><g clip-path="url(#SvgjsClipPath3596194beb9f3-b74f-46ce-b721-803bf2aac675)"><path d=" M 2.118986375027082 1.313166125091637 L 2.3540341040272907 1.313166125091637 L 2.3540341040272907 1.5249311417431286 L 2.118986375027082 1.5249311417431286 Z" fill="#ffce67" transform="matrix(1,0,0,1,0,0)" fill-rule="nonzero"></path></g><g clip-path="url(#SvgjsClipPath3596194beb9f3-b74f-46ce-b721-803bf2aac675)"><path d=" M 2.435369789073742 1.313166125091637 L 2.670417518073952 1.313166125091637 L 2.670417518073952 1.5249311417431286 L 2.435369789073742 1.5249311417431286 Z" fill="#ffce67" transform="matrix(1,0,0,1,0,0)" fill-rule="nonzero"></path></g><g clip-path="url(#SvgjsClipPath3596194beb9f3-b74f-46ce-b721-803bf2aac675)"><path d=" M 2.751753203120402 1.313166125091637 L 2.986800932120612 1.313166125091637 L 2.986800932120612 1.5249311417431286 L 2.751753203120402 1.5249311417431286 Z" fill="#ffce67" transform="matrix(1,0,0,1,0,0)" fill-rule="nonzero"></path></g><g clip-path="url(#SvgjsClipPath3596194beb9f3-b74f-46ce-b721-803bf2aac675)"><path d=" M 0.22068589074711908 1.65226508384516 L 0.4557336197473285 1.65226508384516 L 0.4557336197473285 1.864030100496651 L 0.22068589074711908 1.864030100496651 Z" fill="#ffce67" transform="matrix(1,0,0,1,0,0)" fill-rule="nonzero"></path></g><g clip-path="url(#SvgjsClipPath3596194beb9f3-b74f-46ce-b721-803bf2aac675)"><path d=" M 0.5370693047937795 1.65226508384516 L 0.7721170337939889 1.65226508384516 L 0.7721170337939889 1.864030100496651 L 0.5370693047937795 1.864030100496651 Z" fill="#ffce67" transform="matrix(1,0,0,1,0,0)" fill-rule="nonzero"></path></g><g clip-path="url(#SvgjsClipPath3596194beb9f3-b74f-46ce-b721-803bf2aac675)"><path d=" M 0.8534527188404399 1.65226508384516 L 1.0885004478406493 1.65226508384516 L 1.0885004478406493 1.864030100496651 L 0.8534527188404399 1.864030100496651 Z" fill="#ffce67" transform="matrix(1,0,0,1,0,0)" fill-rule="nonzero"></path></g><g clip-path="url(#SvgjsClipPath3596194beb9f3-b74f-46ce-b721-803bf2aac675)"><path d=" M 1.1698361328871003 1.65226508384516 L 2.670417518073951 1.65226508384516 L 2.670417518073951 1.864030100496651 L 1.1698361328871003 1.864030100496651 Z" fill="#cccccc" transform="matrix(1,0,0,1,0,0)" fill-rule="nonzero"></path></g><g clip-path="url(#SvgjsClipPath3596194beb9f3-b74f-46ce-b721-803bf2aac675)"><path d=" M 2.751753203120402 1.65226508384516 L 2.986800932120612 1.65226508384516 L 2.986800932120612 1.864030100496651 L 2.751753203120402 1.864030100496651 Z" fill="#ffce67" transform="matrix(1,0,0,1,0,0)" fill-rule="nonzero"></path></g></g></g><defs><clipPath id="SvgjsClipPath35966"><path d=" M 0 0 h 3.2088134183690205 v 2.1808076479893472 h -3.2088134183690205 Z"></path></clipPath><clipPath id="SvgjsClipPath3596194beb9f3-b74f-46ce-b721-803bf2aac675"><path d=" M 0 0 L 3.2088134183690205 0 L 3.2088134183690205 2.1808076479893472 L 0 2.1808076479893472 Z"></path></clipPath></defs></svg>